<?xml version="1.0" encoding="UTF-8" standalone="no"?>
<!DOCTYPE svg PUBLIC "-//W3C//DTD SVG 1.1//EN" "http://www.w3.org/Graphics/SVG/1.1/DTD/svg11.dtd">
<svg xmlns="http://www.w3.org/2000/svg" version="1.1" viewBox="0.00 0.00 440.00 566.00">
<g stroke-width="2.00" fill="none" stroke-linecap="butt">
<path stroke="#ffffff" vector-effect="non-scaling-stroke" d="
  M 363.48 373.10
  Q 359.09 374.43 355.50 374.72
  Q 344.19 375.65 333.41 375.21
  A 0.93 0.93 0.0 0 0 332.63 376.71
  Q 334.57 379.23 336.55 382.05
  C 338.58 384.95 341.68 387.24 344.46 389.61
  Q 346.36 391.23 352.27 391.45"
/>
<path stroke="#ffffff" vector-effect="non-scaling-stroke" d="
  M 91.36 379.28
  Q 91.88 379.37 92.83 378.48
  Q 93.53 377.83 94.15 377.52
  Q 112.61 368.05 133.03 364.99"
/>
<path stroke="#ffffff" vector-effect="non-scaling-stroke" d="
  M 153.31 361.87
  Q 154.78 360.44 156.69 359.45
  Q 157.86 358.84 159.85 355.78
  C 161.43 353.36 159.28 350.60 157.78 348.69"
/>
<path stroke="#ffffff" vector-effect="non-scaling-stroke" d="
  M 157.78 348.69
  Q 171.15 346.80 190.75 346.04
  Q 217.23 345.02 233.75 346.15
  Q 260.89 348.00 268.54 348.88
  Q 293.14 351.71 317.16 355.87
  Q 320.55 356.46 324.00 356.41
  Q 327.10 356.37 326.54 353.51
  Q 326.00 350.73 326.61 349.88"
/>
<path stroke="#ffffff" vector-effect="non-scaling-stroke" d="
  M 343.48 315.95
  Q 356.21 293.69 361.59 268.52"
/>
<path stroke="#ffffff" vector-effect="non-scaling-stroke" d="
  M 242.07 106.45
  Q 236.81 106.47 231.34 106.18
  Q 224.88 105.85 220.64 106.06
  Q 214.44 106.37 208.48 106.91"
/>
<path stroke="#ffffff" vector-effect="non-scaling-stroke" d="
  M 121.68 119.09
  Q 127.04 105.50 133.08 93.04
  Q 134.63 89.85 139.93 80.69
  Q 142.34 76.52 141.79 70.47"
/>
<path stroke="#ffffff" vector-effect="non-scaling-stroke" d="
  M 346.05 176.88
  Q 340.03 177.07 334.08 177.16
  C 331.26 177.21 329.51 178.24 327.19 179.61"
/>
<path stroke="#ffffff" vector-effect="non-scaling-stroke" d="
  M 327.19 179.61
  Q 322.90 173.25 321.19 171.06
  Q 294.31 136.40 251.96 126.41
  Q 230.81 121.42 205.29 124.97
  Q 196.67 126.17 186.57 129.69
  Q 174.75 133.82 163.30 141.10
  Q 160.07 143.15 157.46 145.16"
/>
<path stroke="#ffffff" vector-effect="non-scaling-stroke" d="
  M 157.46 145.16
  Q 137.44 157.80 124.77 176.25
  Q 121.81 180.54 118.40 187.46"
/>
<path stroke="#ffffff" vector-effect="non-scaling-stroke" d="
  M 118.40 187.46
  Q 115.11 187.16 114.05 189.08
  A 1.36 1.36 0.0 0 1 112.41 189.70
  Q 105.58 187.32 98.95 188.92"
/>
<path stroke="#ffffff" vector-effect="non-scaling-stroke" d="
  M 157.78 348.69
  Q 141.08 350.97 134.19 353.40
  Q 128.63 355.36 123.14 356.87"
/>
<path stroke="#ffffff" vector-effect="non-scaling-stroke" d="
  M 89.16 267.15
  Q 91.30 276.52 93.46 284.00
  C 94.17 286.46 95.66 288.50 96.58 291.02
  Q 97.06 292.33 97.92 293.55"
/>
<path stroke="#ffffff" vector-effect="non-scaling-stroke" d="
  M 97.92 293.55
  Q 100.89 299.20 102.73 305.56
  Q 103.65 308.77 104.63 310.82
  Q 105.87 313.43 107.16 315.83"
/>
<path stroke="#ffffff" vector-effect="non-scaling-stroke" d="
  M 123.86 349.54
  Q 122.57 351.30 121.99 354.21"
/>
<path stroke="#ffffff" vector-effect="non-scaling-stroke" d="
  M 121.99 354.21
  Q 120.34 354.76 118.80 352.69
  Q 117.34 350.73 113.72 344.96
  Q 111.21 340.95 109.27 336.84
  Q 97.79 312.41 88.43 288.13
  Q 85.17 279.69 82.29 270.70
  C 78.69 259.50 75.91 248.66 73.23 237.36
  C 70.35 225.21 68.42 213.32 66.15 200.71
  Q 65.91 199.38 64.86 198.79
  A 2.15 2.14 34.7 0 0 62.17 199.27
  Q 58.69 203.40 55.97 208.47
  C 54.50 211.23 52.75 213.77 51.03 216.42
  Q 49.28 219.13 47.62 222.50
  Q 45.66 226.46 42.35 230.35
  Q 41.21 231.68 39.53 232.86
  Q 37.90 233.99 36.24 235.09"
/>
<path stroke="#ffffff" vector-effect="non-scaling-stroke" d="
  M 112.81 286.54
  L 107.18 277.66
  A 0.17 0.17 0.0 0 0 106.86 277.76
  L 107.03 281.86
  A 0.61 0.60 -88.8 0 1 106.38 282.49
  L 96.95 281.61
  A 1.60 1.59 -10.2 0 0 95.36 283.89
  Q 97.43 288.17 97.92 293.55"
/>
<path stroke="#ffffff" vector-effect="non-scaling-stroke" d="
  M 363.03 257.14
  Q 359.78 258.35 357.00 257.52
  Q 351.24 255.80 345.45 255.81"
/>
<path stroke="#ffffff" vector-effect="non-scaling-stroke" d="
  M 141.00 320.79
  L 139.02 324.79
  A 1.25 1.25 0.0 0 1 136.98 325.08
  Q 125.51 312.72 118.13 298.11
  Q 115.10 292.11 112.81 286.54"
/>
<path stroke="#ffffff" vector-effect="non-scaling-stroke" d="
  M 112.81 286.54
  Q 105.66 269.56 105.58 256.00
  C 105.53 246.28 105.19 236.69 105.49 227.23
  Q 105.54 225.71 105.75 224.75
  Q 108.55 212.24 110.22 206.24
  Q 112.65 197.58 118.40 187.46"
/>
<path stroke="#ffffff" vector-effect="non-scaling-stroke" d="
  M 327.19 179.61
  Q 336.26 194.80 340.64 209.60
  Q 347.02 231.14 345.45 255.81"
/>
<path stroke="#ffffff" vector-effect="non-scaling-stroke" d="
  M 345.45 255.81
  Q 342.47 271.10 341.56 275.01
  Q 338.66 287.44 330.98 301.86
  Q 324.80 313.47 314.58 324.06
  C 313.57 325.11 312.25 325.14 311.16 324.07
  Q 309.71 322.63 309.82 320.63"
/>
<path stroke="#ffffff" vector-effect="non-scaling-stroke" d="
  M 153.00 155.36
  Q 151.70 155.50 151.77 154.13
  Q 151.80 153.50 152.34 152.78
  Q 154.97 149.31 157.46 145.16"
/>
<path stroke="#ffffff" vector-effect="non-scaling-stroke" d="
  M 121.99 354.21
  L 123.14 356.87"
/>
<path stroke="#ffffff" vector-effect="non-scaling-stroke" d="
  M 123.14 356.87
  Q 104.38 362.98 88.43 373.84"
/>
<path stroke="#ffffff" vector-effect="non-scaling-stroke" d="
  M 291.19 287.91
  Q 276.73 288.57 262.75 289.08
  Q 253.27 289.43 242.75 289.33
  Q 208.55 289.02 174.35 289.00
  C 170.34 289.00 164.23 289.92 158.96 289.22"
/>
<path stroke="#ffffff" vector-effect="non-scaling-stroke" d="
  M 256.78 227.08
  Q 254.50 227.99 251.99 228.26
  Q 244.93 229.04 237.21 230.05
  C 227.46 231.33 217.74 230.38 208.00 231.67
  C 202.66 232.38 196.85 233.57 191.44 232.04"
/>
</g>
<path fill="#ffffff" d="
  M 363.48 373.10
  Q 359.09 374.43 355.50 374.72
  Q 344.19 375.65 333.41 375.21
  A 0.93 0.93 0.0 0 0 332.63 376.71
  Q 334.57 379.23 336.55 382.05
  C 338.58 384.95 341.68 387.24 344.46 389.61
  Q 346.36 391.23 352.27 391.45
  Q 350.83 393.95 349.35 396.15
  Q 338.58 412.12 335.50 416.25
  Q 328.70 425.38 321.78 434.30
  Q 320.08 436.48 318.22 438.76
  Q 290.98 472.17 259.08 500.16
  Q 248.58 509.38 236.70 518.82
  Q 231.22 523.18 225.89 526.92
  Q 225.48 527.21 225.08 526.91
  Q 221.49 524.28 217.95 521.55
  Q 178.80 491.30 145.96 454.30
  Q 120.66 425.78 100.64 394.27
  A 1.52 1.52 0.0 0 0 98.74 393.69
  Q 85.29 399.58 74.95 408.73
  Q 72.46 410.93 74.15 408.07
  Q 75.07 406.51 76.19 405.08
  Q 84.52 394.46 96.02 387.90
  A 0.68 0.67 -31.0 0 0 96.26 386.96
  L 91.36 379.28
  Q 91.88 379.37 92.83 378.48
  Q 93.53 377.83 94.15 377.52
  Q 112.61 368.05 133.03 364.99
  L 136.01 370.01
  A 2.04 2.04 0.0 0 0 138.15 370.98
  L 160.78 366.59
  A 0.22 0.22 0.0 0 0 160.85 366.18
  L 153.31 361.87
  Q 154.78 360.44 156.69 359.45
  Q 157.86 358.84 159.85 355.78
  C 161.43 353.36 159.28 350.60 157.78 348.69
  Q 171.15 346.80 190.75 346.04
  Q 217.23 345.02 233.75 346.15
  Q 260.89 348.00 268.54 348.88
  Q 293.14 351.71 317.16 355.87
  Q 320.55 356.46 324.00 356.41
  Q 327.10 356.37 326.54 353.51
  Q 326.00 350.73 326.61 349.88
  Q 336.29 333.44 343.48 315.95
  Q 356.21 293.69 361.59 268.52
  C 364.10 263.03 365.19 257.00 366.82 251.21
  Q 368.65 244.69 370.00 238.39
  C 371.26 232.53 372.73 226.69 373.78 220.84
  Q 375.47 211.48 377.18 201.06
  C 379.90 184.42 380.25 166.22 381.18 148.46
  Q 381.48 142.80 380.99 137.63
  A 2.03 2.00 -78.7 0 0 379.95 136.04
  Q 364.91 127.80 348.27 123.00
  C 347.26 122.71 346.06 121.92 345.22 121.73
  C 338.88 120.24 332.69 118.10 326.46 116.72
  Q 317.66 114.76 308.94 113.11
  Q 297.14 110.88 276.25 108.47
  Q 257.05 106.26 242.07 106.45
  Q 236.81 106.47 231.34 106.18
  Q 224.88 105.85 220.64 106.06
  Q 214.44 106.37 208.48 106.91
  Q 190.54 106.42 173.00 109.21
  Q 161.74 111.00 150.47 112.75
  C 148.54 113.05 146.32 113.87 144.63 114.15
  Q 133.73 115.98 121.68 119.09
  Q 127.04 105.50 133.08 93.04
  Q 134.63 89.85 139.93 80.69
  Q 142.34 76.52 141.79 70.47
  Q 149.42 69.20 157.08 67.97
  Q 165.64 66.59 172.69 65.84
  C 200.76 62.84 231.39 62.45 258.31 63.83
  Q 282.91 65.09 294.26 66.98
  C 303.45 68.50 313.00 69.65 322.11 71.63
  C 330.32 73.42 338.13 74.99 346.32 77.25
  Q 352.71 79.01 358.45 80.74
  Q 368.66 83.82 381.80 89.03
  Q 396.70 94.93 409.61 103.42
  Q 416.14 107.71 421.33 112.47
  Q 422.25 113.31 422.44 114.69
  Q 425.47 136.14 424.16 158.86
  C 423.18 176.05 421.73 195.27 419.18 211.00
  C 417.63 220.59 416.00 230.43 413.77 240.08
  C 412.06 247.52 410.60 254.57 408.46 262.14
  C 407.09 266.96 405.85 272.03 404.43 276.62
  Q 398.31 296.39 391.50 313.66
  Q 386.02 327.54 378.29 344.15
  Q 377.24 346.40 376.20 348.27
  Q 375.31 349.87 374.68 351.61
  A 0.31 0.30 -87.3 0 0 375.04 352.01
  Q 392.03 347.77 401.62 334.88
  Q 402.10 334.24 402.01 335.03
  Q 401.91 335.85 401.49 336.56
  C 399.25 340.30 397.28 344.20 394.58 347.67
  Q 383.79 361.55 367.49 368.23
  Q 364.23 369.57 363.48 373.10
  Z
  M 312.8607 372.5025
  A 0.65 0.65 0.0 0 0 312.3062 371.7693
  L 285.0474 367.9868
  A 0.65 0.65 0.0 0 0 284.3142 368.5413
  L 284.2593 368.9375
  A 0.65 0.65 0.0 0 0 284.8138 369.6707
  L 312.0726 373.4532
  A 0.65 0.65 0.0 0 0 312.8058 372.8987
  L 312.8607 372.5025
  Z
  M 220.27 467.53
  C 221.69 468.92 223.53 469.93 224.78 471.58
  A 0.83 0.83 0.0 0 0 225.99 471.72
  Q 259.76 442.63 286.80 409.04
  C 291.93 402.67 296.84 396.03 301.72 389.33
  Q 302.12 388.78 301.44 388.72
  C 296.03 388.24 290.73 387.03 285.34 386.40
  C 273.34 384.99 261.25 383.86 249.29 382.12
  Q 242.32 381.11 236.23 381.44
  C 224.39 382.08 212.73 381.85 201.17 379.88
  Q 193.23 378.53 190.46 378.50
  Q 168.77 378.33 145.24 381.06
  Q 144.88 381.10 144.56 381.31
  Q 144.03 381.67 144.39 382.20
  Q 152.17 393.66 160.67 404.49
  Q 186.80 437.78 217.83 465.25
  Q 219.10 466.37 220.27 467.53
  Z"
/>
<path fill="#ffffff" d="
  M 141.79 70.47
  Q 142.34 76.52 139.93 80.69
  Q 134.63 89.85 133.08 93.04
  Q 127.04 105.50 121.68 119.09
  Q 95.99 126.20 71.03 138.87
  Q 70.02 139.38 70.01 140.49
  Q 69.78 167.46 72.04 186.87
  C 73.51 199.48 75.40 212.95 78.24 225.84
  Q 79.48 231.46 80.56 237.67
  C 81.00 240.20 82.06 242.54 82.52 245.13
  Q 84.48 256.29 89.16 267.15
  Q 91.30 276.52 93.46 284.00
  C 94.17 286.46 95.66 288.50 96.58 291.02
  Q 97.06 292.33 97.92 293.55
  Q 100.89 299.20 102.73 305.56
  Q 103.65 308.77 104.63 310.82
  Q 105.87 313.43 107.16 315.83
  Q 114.43 332.67 118.90 340.35
  Q 122.39 346.35 123.86 349.54
  Q 122.57 351.30 121.99 354.21
  Q 120.34 354.76 118.80 352.69
  Q 117.34 350.73 113.72 344.96
  Q 111.21 340.95 109.27 336.84
  Q 97.79 312.41 88.43 288.13
  Q 85.17 279.69 82.29 270.70
  C 78.69 259.50 75.91 248.66 73.23 237.36
  C 70.35 225.21 68.42 213.32 66.15 200.71
  Q 65.91 199.38 64.86 198.79
  A 2.15 2.14 34.7 0 0 62.17 199.27
  Q 58.69 203.40 55.97 208.47
  C 54.50 211.23 52.75 213.77 51.03 216.42
  Q 49.28 219.13 47.62 222.50
  Q 45.66 226.46 42.35 230.35
  Q 41.21 231.68 39.53 232.86
  Q 37.90 233.99 36.24 235.09
  Q 35.92 233.70 35.43 232.18
  Q 34.89 230.50 34.65 229.03
  Q 30.97 206.70 29.99 198.99
  Q 25.18 161.34 28.11 115.50
  C 28.20 114.08 29.35 112.73 30.53 111.99
  Q 46.54 101.96 60.81 95.42
  Q 88.87 82.55 120.26 75.03
  Q 126.55 73.52 141.79 70.47
  Z"
/>
<path fill="#ffffff" d="
  M 242.07 106.45
  Q 245.28 107.47 252.26 108.43
  Q 262.82 109.90 279.51 116.71
  Q 304.61 126.94 325.58 148.92
  Q 337.48 161.39 346.05 176.88
  Q 340.03 177.07 334.08 177.16
  C 331.26 177.21 329.51 178.24 327.19 179.61
  Q 322.90 173.25 321.19 171.06
  Q 294.31 136.40 251.96 126.41
  Q 230.81 121.42 205.29 124.97
  Q 196.67 126.17 186.57 129.69
  Q 174.75 133.82 163.30 141.10
  Q 160.07 143.15 157.46 145.16
  Q 137.44 157.80 124.77 176.25
  Q 121.81 180.54 118.40 187.46
  Q 115.11 187.16 114.05 189.08
  A 1.36 1.36 0.0 0 1 112.41 189.70
  Q 105.58 187.32 98.95 188.92
  Q 106.63 170.89 118.80 156.26
  Q 139.70 131.13 169.78 117.28
  Q 185.97 109.83 208.48 106.91
  Q 214.44 106.37 220.64 106.06
  Q 224.88 105.85 231.34 106.18
  Q 236.81 106.47 242.07 106.45
  Z"
/>
<path fill="#ffffff" d="
  M 327.19 179.61
  Q 336.26 194.80 340.64 209.60
  Q 347.02 231.14 345.45 255.81
  Q 342.47 271.10 341.56 275.01
  Q 338.66 287.44 330.98 301.86
  Q 324.80 313.47 314.58 324.06
  C 313.57 325.11 312.25 325.14 311.16 324.07
  Q 309.71 322.63 309.82 320.63
  Q 314.43 315.75 318.26 310.27
  Q 327.18 297.53 332.61 282.69
  C 340.81 260.25 341.26 234.67 335.01 212.32
  Q 332.45 203.18 327.58 192.90
  Q 326.64 190.93 325.58 189.24
  C 323.78 186.39 322.45 183.34 320.52 180.54
  Q 293.86 141.80 247.68 131.87
  Q 228.03 127.64 205.22 131.58
  Q 201.93 132.14 198.43 133.09
  C 194.44 134.17 190.58 134.98 186.89 136.55
  C 182.87 138.27 178.93 139.54 174.86 141.54
  Q 163.17 147.29 153.00 155.36
  Q 151.70 155.50 151.77 154.13
  Q 151.80 153.50 152.34 152.78
  Q 154.97 149.31 157.46 145.16
  Q 160.07 143.15 163.30 141.10
  Q 174.75 133.82 186.57 129.69
  Q 196.67 126.17 205.29 124.97
  Q 230.81 121.42 251.96 126.41
  Q 294.31 136.40 321.19 171.06
  Q 322.90 173.25 327.19 179.61
  Z"
/>
<path fill="#ffffff" d="
  M 157.46 145.16
  Q 154.97 149.31 152.34 152.78
  Q 151.80 153.50 151.77 154.13
  Q 151.70 155.50 153.00 155.36
  Q 145.17 162.39 138.24 170.21
  C 136.60 172.06 135.46 174.10 133.88 175.93
  Q 133.09 176.85 132.37 177.89
  Q 122.88 191.51 118.30 204.46
  C 115.79 211.57 113.61 219.42 112.63 226.93
  Q 110.30 244.93 112.95 262.98
  Q 113.61 267.50 114.97 272.21
  C 116.18 276.40 117.15 280.53 118.78 284.59
  Q 121.71 291.87 124.38 296.74
  Q 128.49 304.24 132.23 309.52
  Q 134.50 312.72 141.00 320.79
  L 139.02 324.79
  A 1.25 1.25 0.0 0 1 136.98 325.08
  Q 125.51 312.72 118.13 298.11
  Q 115.10 292.11 112.81 286.54
  Q 105.66 269.56 105.58 256.00
  C 105.53 246.28 105.19 236.69 105.49 227.23
  Q 105.54 225.71 105.75 224.75
  Q 108.55 212.24 110.22 206.24
  Q 112.65 197.58 118.40 187.46
  Q 121.81 180.54 124.77 176.25
  Q 137.44 157.80 157.46 145.16
  Z"
/>
<path fill="#ffffff" d="
  M 346.05 176.88
  Q 347.12 178.85 348.34 180.96
  Q 349.55 183.05 350.42 185.16
  C 352.25 189.60 354.33 193.82 355.83 198.43
  Q 357.78 204.41 359.17 209.50
  Q 361.13 216.71 362.95 230.00
  Q 364.61 242.05 363.03 257.14
  Q 359.78 258.35 357.00 257.52
  Q 351.24 255.80 345.45 255.81
  Q 347.02 231.14 340.64 209.60
  Q 336.26 194.80 327.19 179.61
  C 329.51 178.24 331.26 177.21 334.08 177.16
  Q 340.03 177.07 346.05 176.88
  Z"
/>
<path fill="#ffffff" d="
  M 256.78 227.08
  Q 254.50 227.99 251.99 228.26
  Q 244.93 229.04 237.21 230.05
  C 227.46 231.33 217.74 230.38 208.00 231.67
  C 202.66 232.38 196.85 233.57 191.44 232.04
  Q 192.88 228.99 194.45 226.24
  Q 202.82 211.59 211.24 196.96
  Q 213.39 193.22 215.64 189.53
  C 218.62 184.62 224.59 177.46 230.89 182.84
  Q 232.94 184.59 234.25 186.95
  Q 245.41 207.00 256.78 227.08
  Z"
/>
<path fill="#ffffff" d="
  M 118.40 187.46
  Q 112.65 197.58 110.22 206.24
  Q 108.55 212.24 105.75 224.75
  Q 105.54 225.71 105.49 227.23
  C 105.19 236.69 105.53 246.28 105.58 256.00
  Q 105.66 269.56 112.81 286.54
  L 107.18 277.66
  A 0.17 0.17 0.0 0 0 106.86 277.76
  L 107.03 281.86
  A 0.61 0.60 -88.8 0 1 106.38 282.49
  L 96.95 281.61
  A 1.60 1.59 -10.2 0 0 95.36 283.89
  Q 97.43 288.17 97.92 293.55
  Q 97.06 292.33 96.58 291.02
  C 95.66 288.50 94.17 286.46 93.46 284.00
  Q 91.30 276.52 89.16 267.15
  Q 85.18 238.18 90.68 213.00
  Q 92.96 202.57 98.95 188.92
  Q 105.58 187.32 112.41 189.70
  A 1.36 1.36 0.0 0 0 114.05 189.08
  Q 115.11 187.16 118.40 187.46
  Z"
/>
<path fill="#ffffff" d="
  M 121.99 354.21
  L 123.14 356.87
  Q 104.38 362.98 88.43 373.84
  Q 85.80 369.92 83.59 365.44
  Q 82.47 363.18 81.09 360.70
  Q 79.78 358.36 78.54 355.95
  Q 73.16 345.49 68.99 336.20
  Q 67.63 333.16 66.97 331.69
  Q 57.98 311.61 49.75 286.96
  C 47.88 281.35 46.01 274.30 43.96 268.00
  Q 43.15 265.49 41.28 257.50
  C 39.98 251.96 37.43 242.77 36.24 235.09
  Q 37.90 233.99 39.53 232.86
  Q 41.21 231.68 42.35 230.35
  Q 45.66 226.46 47.62 222.50
  Q 49.28 219.13 51.03 216.42
  C 52.75 213.77 54.50 211.23 55.97 208.47
  Q 58.69 203.40 62.17 199.27
  A 2.15 2.14 34.7 0 1 64.86 198.79
  Q 65.91 199.38 66.15 200.71
  C 68.42 213.32 70.35 225.21 73.23 237.36
  C 75.91 248.66 78.69 259.50 82.29 270.70
  Q 85.17 279.69 88.43 288.13
  Q 97.79 312.41 109.27 336.84
  Q 111.21 340.95 113.72 344.96
  Q 117.34 350.73 118.80 352.69
  Q 120.34 354.76 121.99 354.21
  Z"
/>
<path fill="#ffffff" d="
  M 256.78 227.08
  L 291.19 287.91
  Q 276.73 288.57 262.75 289.08
  Q 253.27 289.43 242.75 289.33
  Q 208.55 289.02 174.35 289.00
  C 170.34 289.00 164.23 289.92 158.96 289.22
  L 191.44 232.04
  C 196.85 233.57 202.66 232.38 208.00 231.67
  C 217.74 230.38 227.46 231.33 237.21 230.05
  Q 244.93 229.04 251.99 228.26
  Q 254.50 227.99 256.78 227.08
  Z"
/>
<path fill="#ffffff" d="
  M 345.45 255.81
  Q 351.24 255.80 357.00 257.52
  Q 359.78 258.35 363.03 257.14
  L 361.59 268.52
  Q 356.21 293.69 343.48 315.95
  Q 335.96 327.02 327.22 337.01
  C 325.61 338.86 323.70 340.03 322.75 342.41
  Q 322.55 342.88 322.74 343.37
  Q 324.00 346.73 326.61 349.88
  Q 326.00 350.73 326.54 353.51
  Q 327.10 356.37 324.00 356.41
  Q 320.55 356.46 317.16 355.87
  Q 293.14 351.71 268.54 348.88
  Q 260.89 348.00 233.75 346.15
  Q 217.23 345.02 190.75 346.04
  Q 171.15 346.80 157.78 348.69
  Q 141.08 350.97 134.19 353.40
  Q 128.63 355.36 123.14 356.87
  L 121.99 354.21
  Q 122.57 351.30 123.86 349.54
  Q 127.39 347.39 127.96 342.73
  A 1.42 1.42 0.0 0 0 127.74 341.79
  Q 126.64 340.11 124.14 337.62
  Q 119.53 333.01 107.16 315.83
  Q 105.87 313.43 104.63 310.82
  Q 103.65 308.77 102.73 305.56
  Q 100.89 299.20 97.92 293.55
  Q 97.43 288.17 95.36 283.89
  A 1.60 1.59 -10.2 0 1 96.95 281.61
  L 106.38 282.49
  A 0.61 0.60 -88.8 0 0 107.03 281.86
  L 106.86 277.76
  A 0.17 0.17 0.0 0 1 107.18 277.66
  L 112.81 286.54
  Q 115.10 292.11 118.13 298.11
  Q 125.51 312.72 136.98 325.08
  A 1.25 1.25 0.0 0 0 139.02 324.79
  L 141.00 320.79
  L 158.96 289.22
  C 164.23 289.92 170.34 289.00 174.35 289.00
  Q 208.55 289.02 242.75 289.33
  Q 253.27 289.43 262.75 289.08
  Q 276.73 288.57 291.19 287.91
  L 309.82 320.63
  Q 309.71 322.63 311.16 324.07
  C 312.25 325.14 313.57 325.11 314.58 324.06
  Q 324.80 313.47 330.98 301.86
  Q 338.66 287.44 341.56 275.01
  Q 342.47 271.10 345.45 255.81
  Z"
/>
<path fill="#ffffff" d="
  M 157.78 348.69
  C 159.28 350.60 161.43 353.36 159.85 355.78
  Q 157.86 358.84 156.69 359.45
  Q 154.78 360.44 153.31 361.87
  L 133.03 364.99
  Q 112.61 368.05 94.15 377.52
  Q 93.53 377.83 92.83 378.48
  Q 91.88 379.37 91.36 379.28
  Q 83.83 382.21 78.91 386.65
  Q 75.89 389.39 74.28 390.43
  Q 73.61 390.86 74.01 390.17
  C 76.77 385.45 80.91 381.12 85.03 377.50
  Q 85.93 376.71 87.05 375.99
  Q 88.30 375.20 88.43 373.84
  Q 104.38 362.98 123.14 356.87
  Q 128.63 355.36 134.19 353.40
  Q 141.08 350.97 157.78 348.69
  Z"
/>
<path fill="#ffffff" d="
  M 352.27 391.45
  Q 346.36 391.23 344.46 389.61
  C 341.68 387.24 338.58 384.95 336.55 382.05
  Q 334.57 379.23 332.63 376.71
  A 0.93 0.93 0.0 0 1 333.41 375.21
  Q 344.19 375.65 355.50 374.72
  Q 359.09 374.43 363.48 373.10
  Q 380.01 371.48 393.14 362.13
  C 396.64 359.63 399.44 356.33 401.92 352.89
  Q 402.51 352.07 402.26 353.05
  Q 402.05 353.84 401.66 354.57
  Q 397.02 363.30 391.80 369.39
  Q 386.06 376.09 376.95 381.94
  C 373.31 384.28 369.64 385.70 365.77 387.42
  C 361.59 389.28 356.67 390.09 352.27 391.45
  Z"
/>
</svg>
